<?xml version="1.0" encoding="UTF-8" standalone="no"?>
<svg
   xmlns:svg="http://www.w3.org/2000/svg"
   xmlns="http://www.w3.org/2000/svg"
   version="1.0"
   id="svg2">
   <style type="text/css"><![CDATA[
     .colour1 {
        fill: #b3b3b3;
     }
     
     .colour2 {
        fill: #000000;
     }
   ]]></style>
  <defs
     id="defs365" />
  <g
     transform="matrix(0.221597,0,0,0.163236,-24.28625,11.90583)"
     id="g2055">
    <g
       transform="matrix(1.252067,0,0,1.129389,884.778,889.7011)"
       style="fill-rule:nonzero;stroke:none;stroke-width:11.1427002pt;stroke-linecap:butt;stroke-linejoin:miter;stroke-dasharray:none"
       id="g4" class="colour1">
      <path
         d="M 0,109.222 C 0,48.892 30.923,0 69.062,0 C 107.209,0 138.124,48.892 138.124,109.222 C 138.124,169.54 107.209,218.445 69.062,218.445 C 30.923,218.445 0,169.54 0,109.222 z "
         id="path6" />
    </g>
    <g
       transform="matrix(1.252067,0,0,1.129389,455.1324,666.1205)"
       style="fill-rule:nonzero;stroke:none;stroke-width:11.1427002pt;stroke-linecap:butt;stroke-linejoin:miter;stroke-dasharray:none"
       id="g8" class="colour1">
      <path
         d="M 0,83.623 C 0,37.439 23.673,0 52.875,0 C 82.078,0 105.751,37.439 105.751,83.623 C 105.751,129.808 82.078,167.247 52.875,167.247 C 23.673,167.247 0,129.808 0,83.623 z "
         id="path10" />
    </g>
    <g
       transform="matrix(1.252067,0,0,1.129389,1020.461,1184.319)"
       style="fill-rule:nonzero;stroke:none;stroke-width:11.1427002pt;stroke-linecap:butt;stroke-linejoin:miter;stroke-dasharray:none"
       id="g12" class="colour1">
      <path
         d="M 35.753,99.95 C 29.32,104.93 17.551,87.69 9.451,61.46 C 1.357,35.24 0,9.94 6.432,4.97 C 12.856,0 24.625,17.24 32.727,43.46 C 40.82,69.69 42.177,94.98 35.753,99.95 z "
         id="path14" />
    </g>
    <g
       transform="matrix(1.252067,0,0,1.129389,859.1093,561.6238)"
       style="fill-rule:nonzero;stroke:none;stroke-width:11.1427002pt;stroke-linecap:butt;stroke-linejoin:miter;stroke-dasharray:none"
       id="g16" class="colour1">
      <path
         d="M 12.662,110.049 C 0,80.356 4.948,40.052 23.714,20.026 C 42.488,0 67.982,7.84 80.644,37.532 C 93.315,67.223 88.366,107.516 69.591,127.542 C 50.817,147.568 25.333,139.728 12.662,110.049 z "
         id="path18" />
    </g>
    <g
       transform="matrix(1.252067,0,0,1.129389,976.8362,437.6225)"
       style="fill-rule:nonzero;stroke:none;stroke-width:11.1427002pt;stroke-linecap:butt;stroke-linejoin:miter;stroke-dasharray:none"
       id="g20" class="colour1">
      <path
         d="M 11.668,120.608 C 0,93.262 9.763,50.597 33.477,25.305 C 57.192,0 85.872,1.667 97.539,29.012 C 109.207,56.357 99.444,99.021 75.73,124.327 C 52.016,149.62 23.336,147.953 11.668,120.608 z "
         id="path22" />
    </g>
    <g
       transform="matrix(1.252067,0,0,1.129389,1168.724,324.7988)"
       style="fill-rule:nonzero;stroke:none;stroke-width:11.1427002pt;stroke-linecap:butt;stroke-linejoin:miter;stroke-dasharray:none"
       id="g24" class="colour1">
      <path
         d="M 3.996,68.531 C 0,59.158 9.172,38.318 24.481,21.986 C 39.8,5.653 55.46,0 59.46,9.386 C 63.45,18.759 54.28,39.599 38.96,55.932 C 23.655,72.263 8.001,77.916 3.996,68.531 z "
         id="path26" />
    </g>
    <g
       transform="matrix(1.252067,0,0,1.129389,733.8901,206.2243)"
       style="fill-rule:nonzero;stroke:none;stroke-width:11.1427002pt;stroke-linecap:butt;stroke-linejoin:miter;stroke-dasharray:none"
       id="g28" class="colour1">
      <path
         d="M 19.129,101.702 C 12.384,103.223 4.915,82.036 2.462,54.371 C 0,26.705 3.482,3.04 10.234,1.52 C 16.978,0 24.439,21.199 26.901,48.852 C 29.354,76.517 25.873,100.183 19.129,101.702 z "
         id="path30" />
    </g>
    <g
       transform="matrix(1.252067,0,0,1.129389,156.4982,755.0429)"
       style="fill-rule:nonzero;stroke:none;stroke-width:11.1427002pt;stroke-linecap:butt;stroke-linejoin:miter;stroke-dasharray:none"
       id="g32" class="colour1">
      <path
         d="M 0.111,18.494 C 0,8.961 12.495,0.881 28.032,0.44 C 43.56,0 56.248,7.361 56.366,16.893 C 56.476,26.427 43.982,34.506 28.445,34.947 C 12.916,35.386 0.228,28.013 0.111,18.494 z "
         id="path34" />
    </g>
    <g
       transform="matrix(1.252067,0,0,1.129389,271.8599,802.4276)"
       style="fill-rule:nonzero;stroke:none;stroke-width:11.1427002pt;stroke-linecap:butt;stroke-linejoin:miter;stroke-dasharray:none"
       id="g36" class="colour1">
      <path
         d="M 0.085,13.945 C 0,6.759 9.426,0.666 21.145,0.333 C 32.862,0 42.422,5.559 42.516,12.746 C 42.6,19.931 33.174,26.025 21.456,26.358 C 9.738,26.691 0.178,21.131 0.085,13.945 z "
         id="path38" />
    </g>
    <g
       transform="matrix(1.252067,0,0,1.129389,589.0748,452.8862)"
       style="fill-rule:nonzero;stroke:none;stroke-width:11.1427002pt;stroke-linecap:butt;stroke-linejoin:miter;stroke-dasharray:none"
       id="g40" class="colour1">
      <path
         d="M 0,44.906 C 0,20.107 12.713,0 28.401,0 C 44.083,0 56.795,20.107 56.795,44.906 C 56.795,69.718 44.083,89.824 28.401,89.824 C 12.713,89.824 0,69.718 0,44.906 z "
         id="path42" />
    </g>
    <g
       transform="matrix(1.252067,0,0,1.129389,547.9043,636.0991)"
       style="fill-rule:nonzero;stroke:none;stroke-width:11.1427002pt;stroke-linecap:butt;stroke-linejoin:miter;stroke-dasharray:none"
       id="g44" class="colour1">
      <path
         d="M 15.098,139.967 C 0,104.568 8.269,53.997 33.578,26.998 C 58.886,0 91.646,6.813 106.754,42.212 C 121.86,77.609 113.582,128.194 88.274,155.192 C 62.967,182.179 30.206,175.366 15.098,139.967 z "
         id="path46" />
    </g>
    <g
       transform="matrix(1.252067,0,0,1.129389,669.8156,1154.018)"
       style="fill-rule:nonzero;stroke:none;stroke-width:11.1427002pt;stroke-linecap:butt;stroke-linejoin:miter;stroke-dasharray:none"
       id="g48" class="colour2">
      <path
         d="M 12.662,110.04 C 0,80.34 4.949,40.05 23.715,20.03 C 42.489,0 67.982,7.84 80.644,37.52 C 93.315,67.21 88.366,107.52 69.592,127.54 C 50.818,147.55 25.333,139.73 12.662,110.04 z "
         id="path50" />
    </g>
    <g
       transform="matrix(1.252067,0,0,1.129389,604.6493,1435.936)"
       style="fill-rule:nonzero;stroke:none;stroke-width:11.1427002pt;stroke-linecap:butt;stroke-linejoin:miter;stroke-dasharray:none"
       id="g52" class="colour2">
      <path
         d="M 5.514,85.19 C 0,81.33 0.658,59.98 6.972,37.53 C 13.278,15.07 22.863,0 28.368,3.86 C 33.882,7.73 33.224,29.06 26.919,51.53 C 20.604,73.98 11.019,89.05 5.514,85.19 z "
         id="path54" />
    </g>
    <g
       transform="matrix(1.252067,0,0,1.129389,624.2992,703.4355)"
       style="fill-rule:nonzero;stroke:none;stroke-width:11.1427002pt;stroke-linecap:butt;stroke-linejoin:miter;stroke-dasharray:none"
       id="g56" class="colour2">
      <path
         d="M 9.392,81.611 C 0,59.599 3.667,29.705 17.595,14.853 C 31.513,0 50.422,5.814 59.814,27.839 C 69.213,49.852 65.539,79.744 51.62,94.598 C 37.693,109.448 18.791,103.637 9.392,81.611 z "
         id="path58" />
    </g>
    <g
       transform="matrix(1.252067,0,0,1.129389,887.4812,631.4268)"
       style="fill-rule:nonzero;stroke:none;stroke-width:11.1427002pt;stroke-linecap:butt;stroke-linejoin:miter;stroke-dasharray:none"
       id="g60" class="colour2">
      <path
         d="M 0,39.252 C 0,17.573 11.12,0 24.819,0 C 38.527,0 49.637,17.573 49.637,39.252 C 49.637,60.931 38.527,78.504 24.819,78.504 C 11.12,78.504 0,60.931 0,39.252 z "
         id="path62" />
    </g>
    <g
       transform="matrix(1.252067,0,0,1.129389,622.4186,469.617)"
       style="fill-rule:nonzero;stroke:none;stroke-width:11.1427002pt;stroke-linecap:butt;stroke-linejoin:miter;stroke-dasharray:none"
       id="g64" class="colour2">
      <path
         d="M 0,32.585 C 0,14.585 9.224,0 20.605,0 C 31.977,0 41.2,14.585 41.2,32.585 C 41.2,50.585 31.977,65.17 20.605,65.17 C 9.224,65.17 0,50.585 0,32.585 z "
         id="path66" />
    </g>
    <g
       transform="matrix(1.252067,0,0,1.129389,894.0958,891.8899)"
       style="fill-rule:nonzero;stroke:none;stroke-width:11.1427002pt;stroke-linecap:butt;stroke-linejoin:miter;stroke-dasharray:none"
       id="g68" class="colour2">
      <path
         d="M 12.663,110.037 C 0,80.344 4.949,40.052 23.715,20.026 C 42.489,0 67.982,7.839 80.645,37.52 C 93.316,67.211 88.367,107.516 69.593,127.541 C 50.818,147.554 25.334,139.728 12.663,110.037 z "
         id="path70" />
    </g>
    <g
       transform="matrix(1.252067,0,0,1.129389,480.9864,684.176)"
       style="fill-rule:nonzero;stroke:none;stroke-width:11.1427002pt;stroke-linecap:butt;stroke-linejoin:miter;stroke-dasharray:none"
       id="g72" class="colour2">
      <path
         d="M 0,58.758 C 0,26.307 16.642,0 37.162,0 C 57.681,0 74.314,26.307 74.314,58.758 C 74.314,91.224 57.681,117.529 37.162,117.529 C 16.642,117.529 0,91.224 0,58.758 z "
         id="path74" />
    </g>
    <g
       transform="matrix(1.252067,0,0,1.129389,1188.784,675.2482)"
       style="fill-rule:nonzero;stroke:none;stroke-width:11.1427002pt;stroke-linecap:butt;stroke-linejoin:miter;stroke-dasharray:none"
       id="g76" class="colour2">
      <path
         d="M 38.039,57.345 C 38.039,57.345 26.329,57.345 26.329,57.345 C 26.329,57.345 26.329,175.847 26.329,175.847 C 26.329,175.847 11.701,175.847 11.701,175.847 C 11.701,175.847 11.701,57.345 11.701,57.345 C 11.701,57.345 0,57.345 0,57.345 C 0,57.345 0,38.226 0,38.226 C 0,38.226 11.701,38.226 11.701,38.226 C 11.701,38.226 11.701,0 11.701,0 C 11.701,0 26.329,0 26.329,0 C 26.329,0 26.329,38.226 26.329,38.226 C 26.329,38.226 38.039,38.226 38.039,38.226 C 38.039,38.226 38.039,57.345 38.039,57.345 z "
         id="path78" />
    </g>
    <g
       transform="matrix(1.252067,0,0,1.129389,1253.639,675.2482)"
       style="fill-rule:nonzero;stroke:none;stroke-width:11.1427002pt;stroke-linecap:butt;stroke-linejoin:miter;stroke-dasharray:none"
       id="g80" class="colour2">
      <path
         d="M 93.63,175.847 C 93.63,175.847 79,175.847 79,175.847 C 79,175.847 79,99.397 79,99.397 C 79,87.543 75.78,77.598 69.64,69.571 C 63.49,61.544 55.89,57.345 46.81,57.345 C 37.74,57.345 30.13,61.544 23.99,69.571 C 17.85,77.598 14.63,87.543 14.63,99.397 C 14.63,99.397 14.63,175.847 14.63,175.847 C 14.63,175.847 0,175.847 0,175.847 C 0,175.847 0,0 0,0 C 0,0 14.63,0 14.63,0 C 14.63,0 14.63,55.051 14.63,55.051 C 23.69,43.958 34.24,38.226 46.81,38.226 C 59.68,38.226 70.8,44.346 79.88,56.198 C 88.95,68.052 93.63,82.571 93.63,99.397 C 93.63,99.397 93.63,175.847 93.63,175.847 z "
         id="path82" />
    </g>
    <g
       transform="matrix(1.252067,0,0,1.129389,1383.341,709.7883)"
       style="fill-rule:nonzero;stroke:none;stroke-width:11.1427002pt;stroke-linecap:butt;stroke-linejoin:miter;stroke-dasharray:none"
       id="g84" class="colour2">
      <path
         d="M 117.04,76.45 C 117.04,76.45 14.63,76.45 14.63,76.45 C 14.63,92.129 19.02,105.888 27.5,116.967 C 35.99,128.06 46.52,133.794 58.52,133.794 C 68.18,133.794 76.66,129.968 84.27,122.701 C 91.88,115.447 97.14,106.262 100.07,94.795 C 100.07,94.795 115.29,94.795 115.29,94.795 C 112.07,111.621 105.34,125.38 94.8,136.473 C 84.27,147.554 72.27,152.901 58.52,152.901 C 42.42,152.901 28.67,145.26 17.26,130.354 C 5.85,115.447 0,97.475 0,76.45 C 0,55.423 5.85,37.464 17.26,22.172 C 28.67,7.252 42.42,0 58.52,0 C 74.61,0 88.36,7.252 100.07,22.172 C 111.47,37.078 117.04,55.423 117.04,76.45 z M 99.78,57.33 C 96.85,46.25 91.58,37.078 83.98,29.811 C 76.36,22.544 67.88,19.106 58.52,19.106 C 49.16,19.106 40.67,22.544 33.06,29.811 C 25.45,37.078 20.19,46.25 17.26,57.33 C 17.26,57.33 99.78,57.33 99.78,57.33 z "
         id="path86" />
    </g>
    <g
       transform="matrix(1.252067,0,0,1.129389,1189.087,989.3415)"
       style="fill-rule:nonzero;stroke:none;stroke-width:11.1427002pt;stroke-linecap:butt;stroke-linejoin:miter;stroke-dasharray:none"
       id="g88" class="colour2">
      <path
         d="M 208.127,198.78 C 199.977,224.34 186.937,244.92 169.007,260.55 C 151.077,276.16 130.967,283.97 108.687,283.97 C 78.797,283.97 53.247,269.78 32.057,242.08 C 10.876,214.4 0,181.03 0,141.98 C 0,102.94 10.876,69.57 32.057,41.171 C 53.247,13.492 78.797,0 108.687,0 C 130.417,0 150.527,7.813 168.457,23.426 C 186.387,39.038 199.427,59.637 208.127,84.476 C 208.127,84.476 177.157,84.476 177.157,84.476 C 161.397,51.824 138.567,35.491 108.687,35.491 C 86.397,35.491 66.847,46.144 51.077,66.73 C 35.317,87.316 27.177,112.87 27.177,141.98 C 27.177,171.1 35.317,196.65 51.077,217.24 C 66.847,237.83 86.397,248.48 108.687,248.48 C 138.567,248.48 161.937,232.15 177.687,198.78 C 177.687,198.78 208.127,198.78 208.127,198.78 z "
         id="path90" />
    </g>
    <g
       transform="matrix(1.252067,0,0,1.129389,1475.531,925.1967)"
       style="fill-rule:nonzero;stroke:none;stroke-width:11.1427002pt;stroke-linecap:butt;stroke-linejoin:miter;stroke-dasharray:none"
       id="g92" class="colour2">
      <path
         d="M 173.89,326.576 C 173.89,326.576 146.72,326.576 146.72,326.576 C 146.72,326.576 146.72,184.576 146.72,184.576 C 146.72,162.576 140.74,144.113 129.32,129.207 C 117.92,114.3 103.79,106.488 86.95,106.488 C 70.1,106.488 55.97,114.3 44.56,129.207 C 33.14,144.113 27.16,162.576 27.16,184.576 C 27.16,184.576 27.16,326.576 27.16,326.576 C 27.16,326.576 0,326.576 0,326.576 C 0,326.576 0,0 0,0 C 0,0 27.16,0 27.16,0 C 27.16,0 27.16,102.236 27.16,102.236 C 44.01,81.648 63.58,70.997 86.95,70.997 C 110.85,70.997 131.5,82.356 148.34,104.354 C 165.18,126.367 173.89,153.353 173.89,184.576 C 173.89,184.576 173.89,326.576 173.89,326.576 z "
         id="path94" />
    </g>
    <g
       transform="matrix(1.252067,0,0,1.129389,1721.424,1005.377)"
       style="fill-rule:nonzero;stroke:none;stroke-width:11.1427002pt;stroke-linecap:butt;stroke-linejoin:miter;stroke-dasharray:none"
       id="g96" class="colour2">
      <path
         d="M 65.2,35.492 C 65.2,35.492 54.34,35.492 54.34,35.492 C 46.74,35.492 40.21,39.038 35.32,45.438 C 29.89,52.53 27.17,61.052 27.17,70.997 C 27.17,70.997 27.17,255.572 27.17,255.572 C 27.17,255.572 0,255.572 0,255.572 C 0,255.572 0,0 0,0 C 0,0 27.17,0 27.17,0 C 27.17,0 27.17,9.226 27.17,9.226 C 35.32,2.84 44.56,0 54.34,0 C 54.34,0 65.2,0 65.2,0 C 65.2,0 65.2,35.492 65.2,35.492 z "
         id="path98" />
    </g>
    <g
       transform="matrix(1.252067,0,0,1.129389,1829.515,925.1967)"
       style="fill-rule:nonzero;stroke:none;stroke-width:11.1427002pt;stroke-linecap:butt;stroke-linejoin:miter;stroke-dasharray:none"
       id="g100" class="colour2">
      <path
         d="M 27.17,42.597 C 27.17,42.597 0,42.597 0,42.597 C 0,42.597 0,0 0,0 C 0,0 27.17,0 27.17,0 C 27.17,0 27.17,42.597 27.17,42.597 z M 27.17,326.576 C 27.17,326.576 0,326.576 0,326.576 C 0,326.576 0,70.997 0,70.997 C 0,70.997 27.17,70.997 27.17,70.997 C 27.17,70.997 27.17,326.576 27.17,326.576 z "
         id="path102" />
    </g>
    <g
       transform="matrix(1.252067,0,0,1.129389,1892.344,989.3415)"
       style="fill-rule:nonzero;stroke:none;stroke-width:11.1427002pt;stroke-linecap:butt;stroke-linejoin:miter;stroke-dasharray:none"
       id="g104" class="colour2">
      <path
         d="M 121.72,80.223 C 121.72,80.223 94.55,80.223 94.55,80.223 C 94.55,68.157 91.29,57.503 84.76,48.278 C 78.25,39.757 70.1,35.491 60.86,35.491 C 51.08,35.491 43.47,39.757 36.95,48.278 C 30.43,57.503 27.17,68.157 27.17,80.223 C 27.17,92.29 30.43,102.94 36.95,111.46 C 43.47,119.98 51.62,124.23 60.86,124.23 C 77.7,124.23 91.84,132.05 103.78,147.66 C 115.74,163.29 121.72,181.74 121.72,203.75 C 121.72,225.76 115.74,244.22 104.34,259.84 C 92.38,276.16 78.25,283.97 61.4,283.97 C 44.02,283.97 29.89,276.16 17.93,260.55 C 5.97,244.92 0,225.76 0,203.75 C 0,203.75 27.17,203.75 27.17,203.75 C 27.17,215.82 30.43,226.47 36.95,234.99 C 43.47,244.22 51.62,248.48 60.86,248.48 C 70.64,248.48 78.25,244.22 84.76,234.99 C 91.29,226.47 94.55,215.82 94.55,203.75 C 94.55,191.69 91.29,181.03 84.76,172.51 C 78.25,163.99 70.1,159.74 60.86,159.74 C 44.02,159.74 29.89,151.93 17.93,136.3 C 5.97,120.69 0,102.23 0,80.223 C 0,58.211 5.97,39.757 17.4,23.426 C 29.34,7.813 43.47,0 60.86,0 C 77.7,0 91.84,7.813 103.78,23.426 C 115.74,39.038 121.72,58.211 121.72,80.223 z "
         id="path106" />
    </g>
    <g
       transform="matrix(1.252067,0,0,1.129389,2072.704,925.1967)"
       style="fill-rule:nonzero;stroke:none;stroke-width:11.1427002pt;stroke-linecap:butt;stroke-linejoin:miter;stroke-dasharray:none"
       id="g108" class="colour2">
      <path
         d="M 70.65,106.488 C 70.65,106.488 48.92,106.488 48.92,106.488 C 48.92,106.488 48.92,326.576 48.92,326.576 C 48.92,326.576 21.74,326.576 21.74,326.576 C 21.74,326.576 21.74,106.488 21.74,106.488 C 21.74,106.488 0,106.488 0,106.488 C 0,106.488 0,70.997 0,70.997 C 0,70.997 21.74,70.997 21.74,70.997 C 21.74,70.997 21.74,0 21.74,0 C 21.74,0 48.92,0 48.92,0 C 48.92,0 48.92,70.997 48.92,70.997 C 48.92,70.997 70.65,70.997 70.65,70.997 C 70.65,70.997 70.65,106.488 70.65,106.488 z "
         id="path110" />
    </g>
    <g
       transform="matrix(1.252067,0,0,1.129389,2186.204,925.1967)"
       style="fill-rule:nonzero;stroke:none;stroke-width:11.1427002pt;stroke-linecap:butt;stroke-linejoin:miter;stroke-dasharray:none"
       id="g112" class="colour2">
      <path
         d="M 27.16,42.597 C 27.16,42.597 0,42.597 0,42.597 C 0,42.597 0,0 0,0 C 0,0 27.16,0 27.16,0 C 27.16,0 27.16,42.597 27.16,42.597 z M 27.16,326.576 C 27.16,326.576 0,326.576 0,326.576 C 0,326.576 0,70.997 0,70.997 C 0,70.997 27.16,70.997 27.16,70.997 C 27.16,70.997 27.16,326.576 27.16,326.576 z "
         id="path114" />
    </g>
    <g
       transform="matrix(1.252067,0,0,1.129389,2248.357,989.3415)"
       style="fill-rule:nonzero;stroke:none;stroke-width:11.1427002pt;stroke-linecap:butt;stroke-linejoin:miter;stroke-dasharray:none"
       id="g116" class="colour2">
      <path
         d="M 217.35,269.78 C 217.35,269.78 190.19,269.78 190.19,269.78 C 190.19,269.78 190.19,235.7 190.19,235.7 C 168.45,267.64 141.28,283.97 108.67,283.97 C 78.79,283.97 53.24,269.78 32.05,242.08 C 10.86,214.4 0,181.03 0,141.98 C 0,102.94 10.86,69.57 32.05,41.171 C 53.24,13.492 78.79,0 108.67,0 C 141.28,0 168.45,16.332 190.19,48.278 C 190.19,48.278 190.19,14.2 190.19,14.2 C 190.19,14.2 217.35,14.2 217.35,14.2 C 217.35,14.2 217.35,269.78 217.35,269.78 z M 190.19,141.98 C 190.19,112.87 182.03,87.316 166.27,66.73 C 150.51,46.144 130.95,35.491 108.67,35.491 C 86.39,35.491 66.84,46.144 51.07,66.73 C 35.31,87.316 27.16,112.87 27.16,141.98 C 27.16,171.1 35.31,196.65 51.07,217.24 C 66.84,237.83 86.39,248.48 108.67,248.48 C 130.95,248.48 150.51,237.83 166.27,217.24 C 182.03,196.65 190.19,171.1 190.19,141.98 z "
         id="path118" />
    </g>
    <g
       transform="matrix(1.252067,0,0,1.129389,2548.289,989.3415)"
       style="fill-rule:nonzero;stroke:none;stroke-width:11.1427002pt;stroke-linecap:butt;stroke-linejoin:miter;stroke-dasharray:none"
       id="g120" class="colour2">
      <path
         d="M 173.89,269.78 C 173.89,269.78 146.72,269.78 146.72,269.78 C 146.72,269.78 146.72,113.58 146.72,113.58 C 146.72,91.582 140.74,73.117 129.33,58.211 C 117.93,43.304 103.79,35.491 86.95,35.491 C 70.1,35.491 55.98,43.304 44.56,58.211 C 33.14,73.117 27.17,91.582 27.17,113.58 C 27.17,113.58 27.17,269.78 27.17,269.78 C 27.17,269.78 0,269.78 0,269.78 C 0,269.78 0,14.2 0,14.2 C 0,14.2 27.17,14.2 27.17,14.2 C 27.17,14.2 27.17,31.238 27.17,31.238 C 44.01,10.653 63.58,0 86.95,0 C 110.86,0 131.5,11.36 148.35,33.358 C 165.19,55.371 173.89,82.357 173.89,113.58 C 173.89,113.58 173.89,269.78 173.89,269.78 z "
         id="path122" />
    </g>
    <g
       transform="matrix(1.252067,0,0,1.129389,1189.087,1394.103)"
       style="fill-rule:nonzero;stroke:none;stroke-width:11.1427002pt;stroke-linecap:butt;stroke-linejoin:miter;stroke-dasharray:none"
       id="g124" class="colour2">
      <path
         d="M 208.127,198.77 C 199.977,224.33 186.937,244.92 169.007,260.55 C 151.077,276.16 130.967,283.97 108.687,283.97 C 78.797,283.97 53.247,269.77 32.057,242.08 C 10.876,214.4 0,181.03 0,141.98 C 0,102.94 10.876,69.57 32.057,41.17 C 53.247,13.49 78.797,0 108.687,0 C 130.417,0 150.527,7.81 168.457,23.42 C 186.387,39.03 199.427,59.63 208.127,84.47 C 208.127,84.47 177.157,84.47 177.157,84.47 C 161.397,51.82 138.567,35.49 108.687,35.49 C 86.397,35.49 66.847,46.14 51.077,66.73 C 35.317,87.31 27.177,112.87 27.177,141.98 C 27.177,171.1 35.317,196.64 51.077,217.24 C 66.847,237.83 86.397,248.48 108.687,248.48 C 138.567,248.48 161.937,232.15 177.687,198.77 C 177.687,198.77 208.127,198.77 208.127,198.77 z "
         id="path126" />
    </g>
    <g
       transform="matrix(1.252067,0,0,1.129389,1462.021,1394.103)"
       style="fill-rule:nonzero;stroke:none;stroke-width:11.1427002pt;stroke-linecap:butt;stroke-linejoin:miter;stroke-dasharray:none"
       id="g128" class="colour2">
      <path
         d="M 217.35,141.98 C 217.35,141.98 27.16,141.98 27.16,141.98 C 27.16,171.1 35.31,196.64 51.07,217.24 C 66.84,237.83 86.39,248.48 108.67,248.48 C 126.6,248.48 142.37,241.37 156.49,227.88 C 170.62,214.4 180.4,197.36 185.84,176.05 C 185.84,176.05 214.1,176.05 214.1,176.05 C 208.12,207.29 195.62,232.85 176.06,253.44 C 156.49,274.02 134.21,283.97 108.67,283.97 C 78.79,283.97 53.24,269.77 32.05,242.08 C 10.87,214.4 0,181.03 0,141.98 C 0,102.94 10.87,69.57 32.05,41.17 C 53.24,13.49 78.79,0 108.67,0 C 138.56,0 164.1,13.49 185.84,41.17 C 207.03,68.86 217.35,102.94 217.35,141.98 z M 185.29,106.48 C 179.86,85.9 170.09,68.86 155.96,55.37 C 141.82,41.87 126.07,35.49 108.67,35.49 C 91.29,35.49 75.53,41.87 61.4,55.37 C 47.27,68.86 37.49,85.9 32.05,106.48 C 32.05,106.48 185.29,106.48 185.29,106.48 z "
         id="path130" />
    </g>
    <g
       transform="matrix(1.252067,0,0,1.129389,1761.954,1394.103)"
       style="fill-rule:nonzero;stroke:none;stroke-width:11.1427002pt;stroke-linecap:butt;stroke-linejoin:miter;stroke-dasharray:none"
       id="g132" class="colour2">
      <path
         d="M 173.89,269.77 C 173.89,269.77 146.73,269.77 146.73,269.77 C 146.73,269.77 146.73,113.58 146.73,113.58 C 146.73,91.58 140.74,73.11 129.33,58.21 C 117.93,43.3 103.8,35.49 86.95,35.49 C 70.1,35.49 55.98,43.3 44.57,58.21 C 33.15,73.11 27.17,91.58 27.17,113.58 C 27.17,113.58 27.17,269.77 27.17,269.77 C 27.17,269.77 0,269.77 0,269.77 C 0,269.77 0,14.2 0,14.2 C 0,14.2 27.17,14.2 27.17,14.2 C 27.17,14.2 27.17,31.23 27.17,31.23 C 44.01,10.65 63.58,0 86.95,0 C 110.86,0 131.51,11.36 148.35,33.35 C 165.19,55.37 173.89,82.35 173.89,113.58 C 173.89,113.58 173.89,269.77 173.89,269.77 z "
         id="path134" />
    </g>
    <g
       transform="matrix(1.252067,0,0,1.129389,2007.86,1329.954)"
       class="colour2" style="fill-rule:nonzero;stroke:none;stroke-width:11.1427002pt;stroke-linecap:butt;stroke-linejoin:miter;stroke-dasharray:none"
       id="g136">
      <path
         d="M 70.64,106.49 C 70.64,106.49 48.91,106.49 48.91,106.49 C 48.91,106.49 48.91,326.57 48.91,326.57 C 48.91,326.57 21.74,326.57 21.74,326.57 C 21.74,326.57 21.74,106.49 21.74,106.49 C 21.74,106.49 0,106.49 0,106.49 C 0,106.49 0,71 0,71 C 0,71 21.74,71 21.74,71 C 21.74,71 21.74,0 21.74,0 C 21.74,0 48.91,0 48.91,0 C 48.91,0 48.91,71 48.91,71 C 48.91,71 70.64,71 70.64,71 C 70.64,71 70.64,106.49 70.64,106.49 z "
         id="path138" />
    </g>
    <g
       transform="matrix(1.252067,0,0,1.129389,2121.347,1410.129)"
       class="colour2" style="fill-rule:nonzero;stroke:none;stroke-width:11.1427002pt;stroke-linecap:butt;stroke-linejoin:miter;stroke-dasharray:none"
       id="g140">
      <path
         d="M 65.2,35.5 C 65.2,35.5 54.34,35.5 54.34,35.5 C 46.74,35.5 40.21,39.04 35.32,45.44 C 29.89,52.53 27.17,61.06 27.17,71 C 27.17,71 27.17,255.58 27.17,255.58 C 27.17,255.58 0,255.58 0,255.58 C 0,255.58 0,0 0,0 C 0,0 27.17,0 27.17,0 C 27.17,0 27.17,9.23 27.17,9.23 C 35.32,2.84 44.56,0 54.34,0 C 54.34,0 65.2,0 65.2,0 C 65.2,0 65.2,35.5 65.2,35.5 z "
         id="path142" />
    </g>
    <g
       transform="matrix(1.252067,0,0,1.129389,2218.632,1394.103)"
       class="colour2" style="fill-rule:nonzero;stroke:none;stroke-width:11.1427002pt;stroke-linecap:butt;stroke-linejoin:miter;stroke-dasharray:none"
       id="g144">
      <path
         d="M 217.35,141.98 C 217.35,141.98 27.16,141.98 27.16,141.98 C 27.16,171.1 35.31,196.64 51.07,217.24 C 66.84,237.83 86.39,248.48 108.67,248.48 C 126.6,248.48 142.37,241.37 156.49,227.88 C 170.62,214.4 180.4,197.36 185.84,176.05 C 185.84,176.05 214.1,176.05 214.1,176.05 C 208.12,207.29 195.62,232.85 176.06,253.44 C 156.49,274.02 134.21,283.97 108.67,283.97 C 78.79,283.97 53.24,269.77 32.05,242.08 C 10.87,214.4 0,181.03 0,141.98 C 0,102.94 10.87,69.57 32.05,41.17 C 53.24,13.49 78.79,0 108.67,0 C 138.56,0 164.1,13.49 185.84,41.17 C 207.03,68.86 217.35,102.94 217.35,141.98 z M 185.29,106.48 C 179.86,85.9 170.09,68.86 155.95,55.37 C 141.82,41.87 126.07,35.49 108.67,35.49 C 91.29,35.49 75.53,41.87 61.4,55.37 C 47.27,68.86 37.49,85.9 32.05,106.48 C 32.05,106.48 185.29,106.48 185.29,106.48 z "
         id="path146" />
    </g>
    <g
       transform="matrix(1.252067,0,0,1.129389,1426.249,1769.004)"
       class="colour2" style="fill-rule:nonzero;stroke:none;stroke-width:11.1427002pt;stroke-linecap:butt;stroke-linejoin:miter;stroke-dasharray:none"
       id="g148">
      <path
         d="M 0,0 C 0,0 22.5,0 22.5,0 C 22.5,0 38.13,45.24 38.13,45.24 C 38.13,45.24 53.85,0 53.85,0 C 53.85,0 76.36,0 76.36,0 C 76.36,0 76.36,84.59 76.36,84.59 C 76.36,84.59 59.59,84.59 59.59,84.59 C 59.59,84.59 59.59,22.74 59.59,22.74 C 59.59,22.74 43.78,68.35 43.78,68.35 C 43.78,68.35 32.57,68.35 32.57,68.35 C 32.57,68.35 16.76,22.74 16.76,22.74 C 16.76,22.74 16.76,84.59 16.76,84.59 C 16.76,84.59 0,84.59 0,84.59 C 0,84.59 0,0 0,0 z "
         id="path150" />
    </g>
    <g
       transform="matrix(1.252067,0,0,1.129389,1537.045,1769.004)"
       class="colour2" style="fill-rule:nonzero;stroke:none;stroke-width:11.1427002pt;stroke-linecap:butt;stroke-linejoin:miter;stroke-dasharray:none"
       id="g152">
      <path
         d="M 0,0 C 0,0 17.69,0 17.69,0 C 17.69,0 17.69,84.59 17.69,84.59 C 17.69,84.59 0,84.59 0,84.59 C 0,84.59 0,0 0,0 z "
         id="path154" />
    </g>
    <g
       transform="matrix(1.252067,0,0,1.129389,1572.165,1769.004)"
       class="colour2" style="fill-rule:nonzero;stroke:none;stroke-width:11.1427002pt;stroke-linecap:butt;stroke-linejoin:miter;stroke-dasharray:none"
       id="g156">
      <path
         d="M 17.7,16.48 C 17.7,16.48 17.7,68.11 17.7,68.11 C 17.7,68.11 24.01,68.11 24.01,68.11 C 31.26,68.11 36.81,65.91 40.58,61.5 C 44.44,57.08 46.33,50.6 46.33,42.23 C 46.33,33.76 44.44,27.39 40.58,23.09 C 36.81,18.68 31.26,16.48 24.01,16.48 C 24.01,16.48 17.7,16.48 17.7,16.48 z M 0,0 C 0,0 18.64,0 18.64,0 C 29.1,0 36.81,0.91 41.99,2.78 C 47.08,4.52 51.41,7.64 55.08,12.07 C 58.28,15.89 60.73,20.3 62.24,25.28 C 63.83,30.28 64.58,35.85 64.58,42.23 C 64.58,48.62 63.83,54.3 62.24,59.29 C 60.73,64.29 58.28,68.7 55.08,72.52 C 51.41,76.93 46.98,80.07 41.8,81.81 C 36.72,83.66 28.99,84.59 18.64,84.59 C 18.64,84.59 0,84.59 0,84.59 C 0,84.59 0,0 0,0 z "
         id="path158" />
    </g>
    <g
       transform="matrix(1.252067,0,0,1.129389,1664.042,1769.004)"
       class="colour2" style="fill-rule:nonzero;stroke:none;stroke-width:11.1427002pt;stroke-linecap:butt;stroke-linejoin:miter;stroke-dasharray:none"
       id="g160">
      <path
         d="M 17.7,16.48 C 17.7,16.48 17.7,68.11 17.7,68.11 C 17.7,68.11 24.01,68.11 24.01,68.11 C 31.26,68.11 36.81,65.91 40.57,61.5 C 44.43,57.08 46.32,50.6 46.32,42.23 C 46.32,33.76 44.43,27.39 40.57,23.09 C 36.81,18.68 31.26,16.48 24.01,16.48 C 24.01,16.48 17.7,16.48 17.7,16.48 z M 0,0 C 0,0 18.64,0 18.64,0 C 29.09,0 36.81,0.91 41.99,2.78 C 47.08,4.52 51.41,7.64 55.08,12.07 C 58.28,15.89 60.72,20.3 62.23,25.28 C 63.83,30.28 64.58,35.85 64.58,42.23 C 64.58,48.62 63.83,54.3 62.23,59.29 C 60.72,64.29 58.28,68.7 55.08,72.52 C 51.41,76.93 46.98,80.07 41.8,81.81 C 36.72,83.66 28.99,84.59 18.64,84.59 C 18.64,84.59 0,84.59 0,84.59 C 0,84.59 0,0 0,0 z "
         id="path162" />
    </g>
    <g
       transform="matrix(1.252067,0,0,1.129389,1755.919,1769.004)"
       class="colour2" style="fill-rule:nonzero;stroke:none;stroke-width:11.1427002pt;stroke-linecap:butt;stroke-linejoin:miter;stroke-dasharray:none"
       id="g164">
      <path
         d="M 0,0 C 0,0 17.7,0 17.7,0 C 17.7,0 17.7,68.11 17.7,68.11 C 17.7,68.11 48.76,68.11 48.76,68.11 C 48.76,68.11 48.76,84.59 48.76,84.59 C 48.76,84.59 0,84.59 0,84.59 C 0,84.59 0,0 0,0 z "
         id="path166" />
    </g>
    <g
       transform="matrix(1.252067,0,0,1.129389,1823.468,1769.004)"
       class="colour2" style="fill-rule:nonzero;stroke:none;stroke-width:11.1427002pt;stroke-linecap:butt;stroke-linejoin:miter;stroke-dasharray:none"
       id="g168">
      <path
         d="M 0,0 C 0,0 47.73,0 47.73,0 C 47.73,0 47.73,16.48 47.73,16.48 C 47.73,16.48 17.7,16.48 17.7,16.48 C 17.7,16.48 17.7,32.26 17.7,32.26 C 17.7,32.26 45.95,32.26 45.95,32.26 C 45.95,32.26 45.95,48.73 45.95,48.73 C 45.95,48.73 17.7,48.73 17.7,48.73 C 17.7,48.73 17.7,68.11 17.7,68.11 C 17.7,68.11 48.77,68.11 48.77,68.11 C 48.77,68.11 48.77,84.59 48.77,84.59 C 48.77,84.59 0,84.59 0,84.59 C 0,84.59 0,0 0,0 z "
         id="path170" />
    </g>
    <g
       transform="matrix(1.252067,0,0,1.129389,1894.059,1767.287)"
       class="colour2" style="fill-rule:nonzero;stroke:none;stroke-width:11.1427002pt;stroke-linecap:butt;stroke-linejoin:miter;stroke-dasharray:none"
       id="g172">
      <path
         d="M 49.62,4.18 C 49.62,4.18 49.62,22.05 49.62,22.05 C 45.86,19.96 42.19,18.46 38.61,17.41 C 35.03,16.37 31.64,15.79 28.44,15.79 C 24.21,15.79 21.1,16.48 19.02,18 C 17.05,19.38 16.02,21.59 16.02,24.61 C 16.02,26.93 16.67,28.67 18.09,29.94 C 19.4,31.21 21.94,32.26 25.52,33.19 C 25.52,33.19 33.05,35.05 33.05,35.05 C 40.68,36.91 46.14,39.8 49.35,43.64 C 52.54,47.47 54.15,52.92 54.15,60.12 C 54.15,69.4 51.89,76.36 47.36,80.88 C 42.94,85.41 36.07,87.74 26.84,87.74 C 22.51,87.74 18.09,87.27 13.76,86.23 C 9.33,85.18 4.99,83.67 0.57,81.7 C 0.57,81.7 0.57,63.24 0.57,63.24 C 4.99,66.15 9.23,68.35 13.28,69.75 C 17.42,71.26 21.38,71.95 25.14,71.95 C 29.01,71.95 31.92,71.13 34,69.51 C 36.07,68.01 37.11,65.69 37.11,62.79 C 37.11,60.12 36.44,58.03 35.03,56.63 C 33.62,55.24 30.8,53.85 26.65,52.81 C 26.65,52.81 19.78,50.95 19.78,50.95 C 12.9,49.08 7.91,46.19 4.72,42.25 C 1.61,38.3 0,32.96 0,26.23 C 0,17.75 2.17,11.38 6.6,6.84 C 11.03,2.32 17.33,0 25.62,0 C 29.38,0 33.25,0.36 37.29,1.05 C 41.25,1.74 45.39,2.79 49.62,4.18 z "
         id="path174" />
    </g>
    <g
       transform="matrix(1.252067,0,0,1.129389,1974.792,1769.004)"
       class="colour2" style="fill-rule:nonzero;stroke:none;stroke-width:11.1427002pt;stroke-linecap:butt;stroke-linejoin:miter;stroke-dasharray:none"
       id="g176">
      <path
         d="M 27.49,32.71 C 30.22,32.71 32.39,32.02 33.8,30.51 C 35.21,29.01 35.96,26.69 35.96,23.78 C 35.96,20.89 35.21,18.68 33.8,17.17 C 32.39,15.66 30.22,14.85 27.49,14.85 C 27.49,14.85 17.7,14.85 17.7,14.85 C 17.7,14.85 17.7,32.71 17.7,32.71 C 17.7,32.71 27.49,32.71 27.49,32.71 z M 28.06,69.74 C 31.63,69.74 34.27,68.81 36.06,66.95 C 37.85,65.1 38.79,62.31 38.79,58.6 C 38.79,54.88 37.94,52.1 36.15,50.35 C 34.36,48.49 31.63,47.56 28.06,47.56 C 28.06,47.56 17.7,47.56 17.7,47.56 C 17.7,47.56 17.7,69.74 17.7,69.74 C 17.7,69.74 28.06,69.74 28.06,69.74 z M 44.53,39.33 C 48.3,40.6 51.31,43.17 53.39,46.87 C 55.46,50.47 56.49,54.99 56.49,60.34 C 56.49,68.45 54.23,74.61 49.8,78.56 C 45.29,82.61 38.51,84.59 29.37,84.59 C 29.37,84.59 0,84.59 0,84.59 C 0,84.59 0,0 0,0 C 0,0 26.55,0 26.55,0 C 36.06,0 43.03,1.73 47.27,5.32 C 51.5,8.81 53.67,14.5 53.67,22.39 C 53.67,26.44 52.91,29.93 51.31,32.83 C 49.8,35.74 47.45,37.94 44.53,39.33 z "
         id="path178" />
    </g>
    <g
       transform="matrix(1.252067,0,0,1.129389,2055.864,1769.004)"
       class="colour2" style="fill-rule:nonzero;stroke:none;stroke-width:11.1427002pt;stroke-linecap:butt;stroke-linejoin:miter;stroke-dasharray:none"
       id="g180">
      <path
         d="M 25.13,37.48 C 28.8,37.48 31.44,36.66 33.04,34.92 C 34.65,33.18 35.49,30.39 35.49,26.57 C 35.49,22.74 34.65,19.96 33.04,18.21 C 31.44,16.59 28.8,15.78 25.13,15.78 C 25.13,15.78 17.69,15.78 17.69,15.78 C 17.69,15.78 17.69,37.48 17.69,37.48 C 17.69,37.48 25.13,37.48 25.13,37.48 z M 17.69,52.56 C 17.69,52.56 17.69,84.59 17.69,84.59 C 17.69,84.59 0,84.59 0,84.59 C 0,84.59 0,0 0,0 C 0,0 27.02,0 27.02,0 C 36.05,0 42.64,1.84 46.89,5.57 C 51.12,9.39 53.19,15.19 53.19,23.32 C 53.19,28.89 52.06,33.53 49.89,37.12 C 47.73,40.73 44.43,43.28 40.01,45.03 C 42.46,45.71 44.63,47.22 46.51,49.65 C 48.38,52.1 50.37,55.7 52.34,60.56 C 52.34,60.56 61.95,84.59 61.95,84.59 C 61.95,84.59 43.12,84.59 43.12,84.59 C 43.12,84.59 34.73,63.59 34.73,63.59 C 33.04,59.29 31.35,56.4 29.56,54.88 C 27.85,53.38 25.6,52.56 22.68,52.56 C 22.68,52.56 17.69,52.56 17.69,52.56 z "
         id="path182" />
    </g>
    <g
       transform="matrix(1.252067,0,0,1.129389,2134.669,1767.287)"
       class="colour2" style="fill-rule:nonzero;stroke:none;stroke-width:11.1427002pt;stroke-linecap:butt;stroke-linejoin:miter;stroke-dasharray:none"
       id="g184">
      <path
         d="M 35.31,15.79 C 29.85,15.79 25.71,18.22 22.69,23.1 C 19.77,28.09 18.26,34.94 18.26,43.87 C 18.26,52.81 19.77,59.65 22.69,64.65 C 25.71,69.51 29.85,71.95 35.31,71.95 C 40.67,71.95 44.91,69.51 47.93,64.65 C 50.85,59.65 52.35,52.81 52.35,43.87 C 52.35,34.94 50.85,28.09 47.93,23.1 C 44.91,18.22 40.67,15.79 35.31,15.79 z M 35.31,0 C 46.32,0 54.99,3.95 61.2,11.73 C 67.51,19.5 70.62,30.18 70.62,43.87 C 70.62,57.56 67.51,68.24 61.2,76.02 C 54.99,83.79 46.32,87.74 35.31,87.74 C 24.29,87.74 15.62,83.79 9.42,76.02 C 3.1,68.24 0,57.56 0,43.87 C 0,30.18 3.1,19.5 9.42,11.73 C 15.62,3.95 24.29,0 35.31,0 z "
         id="path186" />
    </g>
    <g
       transform="matrix(1.252067,0,0,1.129389,2234.208,1769.004)"
       class="colour2" style="fill-rule:nonzero;stroke:none;stroke-width:11.1427002pt;stroke-linecap:butt;stroke-linejoin:miter;stroke-dasharray:none"
       id="g188">
      <path
         d="M 0,0 C 0,0 17.69,0 17.69,0 C 17.69,0 17.69,50.71 17.69,50.71 C 17.69,57.67 18.63,62.67 20.42,65.67 C 22.31,68.7 25.32,70.2 29.56,70.2 C 33.79,70.2 36.8,68.7 38.69,65.67 C 40.47,62.67 41.42,57.67 41.42,50.71 C 41.42,50.71 41.42,0 41.42,0 C 41.42,0 59.12,0 59.12,0 C 59.12,0 59.12,50.71 59.12,50.71 C 59.12,62.67 56.67,71.59 51.77,77.4 C 46.97,83.31 39.53,86.22 29.56,86.22 C 19.57,86.22 12.13,83.31 7.33,77.4 C 2.44,71.59 0,62.67 0,50.71 C 0,50.71 0,0 0,0 z "
         id="path190" />
    </g>
    <g
       transform="matrix(1.252067,0,0,1.129389,2318.41,1767.287)"
       class="colour2" style="fill-rule:nonzero;stroke:none;stroke-width:11.1427002pt;stroke-linecap:butt;stroke-linejoin:miter;stroke-dasharray:none"
       id="g192">
      <path
         d="M 65.63,79.84 C 61.21,82.4 56.68,84.49 51.88,85.77 C 47.18,87.04 42.28,87.74 37.2,87.74 C 25.81,87.74 16.67,83.79 9.98,75.9 C 3.3,68.01 0,57.33 0,43.87 C 0,30.29 3.4,19.5 10.18,11.73 C 17.05,3.95 26.28,0 38.14,0 C 42.75,0 47.09,0.58 51.23,1.64 C 55.47,2.68 59.42,4.18 63.09,6.27 C 63.09,6.27 63.09,23.8 63.09,23.8 C 59.23,21.12 55.47,19.16 51.7,17.75 C 47.84,16.48 44.06,15.79 40.31,15.79 C 33.25,15.79 27.78,18.22 24.01,23.1 C 20.16,27.96 18.27,34.82 18.27,43.87 C 18.27,52.81 20.16,59.76 23.83,64.65 C 27.5,69.51 32.68,71.95 39.45,71.95 C 41.34,71.95 43.04,71.83 44.63,71.49 C 46.23,71.26 47.65,70.79 48.87,70.22 C 48.87,70.22 48.87,53.74 48.87,53.74 C 48.87,53.74 38.05,53.74 38.05,53.74 C 38.05,53.74 38.05,39.12 38.05,39.12 C 38.05,39.12 65.63,39.12 65.63,39.12 C 65.63,39.12 65.63,79.84 65.63,79.84 z "
         id="path194" />
    </g>
    <g
       transform="matrix(1.252067,0,0,1.129389,2412.54,1769.004)"
       class="colour2" style="fill-rule:nonzero;stroke:none;stroke-width:11.1427002pt;stroke-linecap:butt;stroke-linejoin:miter;stroke-dasharray:none"
       id="g196">
      <path
         d="M 0,0 C 0,0 17.7,0 17.7,0 C 17.7,0 17.7,32.26 17.7,32.26 C 17.7,32.26 43.78,32.26 43.78,32.26 C 43.78,32.26 43.78,0 43.78,0 C 43.78,0 61.49,0 61.49,0 C 61.49,0 61.49,84.59 61.49,84.59 C 61.49,84.59 43.78,84.59 43.78,84.59 C 43.78,84.59 43.78,48.73 43.78,48.73 C 43.78,48.73 17.7,48.73 17.7,48.73 C 17.7,48.73 17.7,84.59 17.7,84.59 C 17.7,84.59 0,84.59 0,84.59 C 0,84.59 0,0 0,0 z "
         id="path198" />
    </g>
  </g>
</svg>
